<svg width="40" height="42" viewBox="0 0 40 42" fill="none" xmlns="http://www.w3.org/2000/svg">
<path d="M32 8H35V34H32V37H8V34H5V8H8V5H32V8Z" fill="white"/>
<path d="M30 10H33V30H30V33H10V30H7V10H10V7H30V10Z" fill="black"/>
<path d="M30 12H33V32H30V35H10V32H7V12H10V9H30V12Z" fill="black"/>
<g clip-path="url(#paint0_angular_2079_1013_clip_path)" data-figma-skip-parse="true"><g transform="matrix(0.013 0.012 -0.012 0.013 20 20)"><foreignObject x="-878.594" y="-878.594" width="1757.19" height="1757.19"><div xmlns="http://www.w3.org/1999/xhtml" style="background:conic-gradient(from 90deg,rgba(239, 76, 76, 1) 0deg,rgba(255, 214, 113, 1) 93.4615deg,rgba(142, 237, 131, 1) 180deg,rgba(75, 121, 234, 1) 271.731deg,rgba(129, 63, 234, 1) 360deg);height:100%;width:100%;opacity:1"></div></foreignObject></g></g><path d="M28 12H31V28H28V31H12V28H9V12H12V9H28V12Z" data-figma-gradient-fill="{&#34;type&#34;:&#34;GRADIENT_ANGULAR&#34;,&#34;stops&#34;:[{&#34;color&#34;:{&#34;r&#34;:0.93725490570068359,&#34;g&#34;:0.29803922772407532,&#34;b&#34;:0.29803922772407532,&#34;a&#34;:1.0},&#34;position&#34;:0.0},{&#34;color&#34;:{&#34;r&#34;:1.0,&#34;g&#34;:0.83921569585800171,&#34;b&#34;:0.44313725829124451,&#34;a&#34;:1.0},&#34;position&#34;:0.25961539149284363},{&#34;color&#34;:{&#34;r&#34;:0.55715870857238770,&#34;g&#34;:0.93175327777862549,&#34;b&#34;:0.51553702354431152,&#34;a&#34;:1.0},&#34;position&#34;:0.50},{&#34;color&#34;:{&#34;r&#34;:0.29411765933036804,&#34;g&#34;:0.47450980544090271,&#34;b&#34;:0.91764706373214722,&#34;a&#34;:1.0},&#34;position&#34;:0.75480771064758301},{&#34;color&#34;:{&#34;r&#34;:0.50588238239288330,&#34;g&#34;:0.24705882370471954,&#34;b&#34;:0.91764706373214722,&#34;a&#34;:1.0},&#34;position&#34;:1.0}],&#34;stopsVar&#34;:[{&#34;color&#34;:{&#34;r&#34;:0.93725490570068359,&#34;g&#34;:0.29803922772407532,&#34;b&#34;:0.29803922772407532,&#34;a&#34;:1.0},&#34;position&#34;:0.0},{&#34;color&#34;:{&#34;r&#34;:1.0,&#34;g&#34;:0.83921569585800171,&#34;b&#34;:0.44313725829124451,&#34;a&#34;:1.0},&#34;position&#34;:0.25961539149284363},{&#34;color&#34;:{&#34;r&#34;:0.55715870857238770,&#34;g&#34;:0.93175327777862549,&#34;b&#34;:0.51553702354431152,&#34;a&#34;:1.0},&#34;position&#34;:0.50},{&#34;color&#34;:{&#34;r&#34;:0.29411765933036804,&#34;g&#34;:0.47450980544090271,&#34;b&#34;:0.91764706373214722,&#34;a&#34;:1.0},&#34;position&#34;:0.75480771064758301},{&#34;color&#34;:{&#34;r&#34;:0.50588238239288330,&#34;g&#34;:0.24705882370471954,&#34;b&#34;:0.91764706373214722,&#34;a&#34;:1.0},&#34;position&#34;:1.0}],&#34;transform&#34;:{&#34;m00&#34;:25.999998092651367,&#34;m01&#34;:-24.000001907348633,&#34;m02&#34;:19.000001907348633,&#34;m10&#34;:24.000001907348633,&#34;m11&#34;:25.999998092651367,&#34;m12&#34;:-5.0},&#34;opacity&#34;:1.0,&#34;blendMode&#34;:&#34;NORMAL&#34;,&#34;visible&#34;:true}"/>
<rect x="16" y="10" width="8" height="20" fill="white"/>
<rect x="18" y="12" width="4" height="4" fill="black"/>
<rect x="18" y="18" width="4" height="10" fill="black"/>
<defs>
<clipPath id="paint0_angular_2079_1013_clip_path"><path d="M28 12H31V28H28V31H12V28H9V12H12V9H28V12Z"/></clipPath></defs>
</svg>
