<svg width="377" height="77" viewBox="0 0 377 77" fill="none" xmlns="http://www.w3.org/2000/svg">
<g filter="url(#filter0_f_2110_877)">
<rect x="20" y="20" width="337" height="37" fill="url(#paint0_linear_2110_877)" fill-opacity="0.25"/>
</g>
<path d="M350.573 20.3555H173.666V27.0187L172.953 26.3203H169.955V24.0898L165.777 20H163.631L159.453 24.0898V26.3203H156.208L155.272 27.2358V23.4921H152.069V20.3555H97.394V23.4921H94.1901V39.178H90.8609V20.3555H26.4109V23.4921H23.2071V26.6286H20V50.4469H23.2039V53.5835H26.4077V56.72H155.269V44.7715L156.204 45.687H159.45V52.9071L163.628 56.9969H165.774L169.952 52.9071V45.687H172.95L173.663 44.9886V56.7232H356.997V20.3555H350.57H350.573ZM279.841 39.1811H276.566V37.9007H279.841V39.1811Z" fill="white"/>
<path d="M350.573 20.3555H173.666V27.0187L172.953 26.3203H169.955V24.0898L165.777 20H163.631L159.453 24.0898V26.3203H156.208L155.272 27.2358V23.4921H152.069V20.3555H97.394V23.4921H94.1901V39.178H90.8609V20.3555H26.4109V23.4921H23.2071V26.6286H20V50.4469H23.2039V53.5835H26.4077V56.72H155.269V44.7715L156.204 45.687H159.45V52.9071L163.628 56.9969H165.774L169.952 52.9071V45.687H172.95L173.663 44.9886V56.7232H356.997V20.3555H350.57H350.573ZM279.841 39.1811H276.566V37.9007H279.841V39.1811Z" fill="url(#paint1_linear_2110_877)"/>
<path d="M30.7492 52.4761V49.3395H27.5421V46.203H24.3383V30.8788H27.5421V27.7423H30.7492V24.6026H47.7454V27.7423H50.9493V36.7902H40.3608V33.6536H38.1306V36.7902H34.9267V40.2916H38.1306V43.4282H40.3608V40.2916H50.9493V49.3395H47.7454V52.4761H30.7492Z" fill="black"/>
<path d="M45.6567 26.6475V29.784H48.8605V34.7421H42.4496V31.6056H36.0387V34.7421H32.8348V42.3334H36.0387V45.4699H42.4496V42.3334H48.8605V47.2915H45.6567V50.428H32.838V47.2915H29.6341V44.1549H26.4303V32.9206H29.6341V29.784H32.838V26.6475H45.6567ZM49.8342 22.5577H28.6604V25.6942H25.4566V28.8308H22.2495V48.2447H25.4534V51.3813H28.6572V54.5178H49.831V51.3813H53.0349V25.6974H49.831V22.5608L49.8342 22.5577Z" fill="white"/>
<path d="M53.3401 52.4761V49.3395H50.1362V27.7423H53.3401V24.6057H73.5402V27.7423H76.744V49.3395H73.5402V52.4761H53.3401ZM66.1588 43.4282V33.6536H60.7215V43.4282H66.1588Z" fill="black"/>
<path d="M71.4514 26.6475V29.784H74.6553V47.2915H71.4514V50.428H55.4289V47.2915H52.225V29.7872H55.4289V26.6506H71.4514M58.6328 45.4731H68.2476V31.6087H58.6328V45.4731ZM75.629 22.5577H51.2513V25.6942H48.0475V51.3813H51.2513V54.5178H75.629V51.3813H78.8328V25.6974H75.629V22.5608V22.5577ZM62.8103 35.6985H64.07V41.3833H62.8103V35.6985Z" fill="white"/>
<path d="M75.931 52.4761V24.6026H86.5195V43.4282H99.3382V52.4761H75.931Z" fill="black"/>
<path d="M84.4308 26.6475V45.4731H97.2494V50.4312H78.0198V26.6475H84.4308ZM88.6083 22.5577H73.8423V54.521H101.427V41.3833H88.6083V22.5577Z" fill="white"/>
<path d="M101.729 52.4761V49.3395H98.5251V27.7423H101.729V24.6057H121.929V27.7423H125.133V49.3395H121.929V52.4761H101.729ZM114.548 43.4282V33.6536H109.11V43.4282H114.548Z" fill="black"/>
<path d="M119.84 26.6475V29.784H123.044V47.2915H119.84V50.428H103.818V47.2915H100.614V29.7872H103.818V26.6506H119.84M107.022 45.4731H116.636V31.6087H107.022V45.4731ZM124.018 22.5577H99.6403V25.6942H96.4364V51.3813H99.6403V54.5178H124.018V51.3813H127.222V25.6974H124.018V22.5608V22.5577ZM111.199 35.6985H112.459V41.3833H111.199V35.6985Z" fill="white"/>
<path d="M137.139 52.4761V49.3395H134.905V52.4761H124.317V24.6026H147.724V27.7391H150.928V43.0633H147.724V43.4282H150.928V52.4761H137.135H137.139ZM137.139 37.1551V34.0185H140.343V33.6536H134.905V37.1551H137.139Z" fill="black"/>
<path d="M145.638 26.6475V29.784H148.842V41.0184H142.431V42.3334H145.635V45.4699H148.839V50.428H139.224V47.2915H136.02V44.1549H132.816V50.4312H126.406V26.6475H145.635M132.82 39.2H139.231V36.0634H142.434V31.6087H132.82V39.2ZM149.816 22.5577H122.231V54.521H153.02V25.6974H149.816V22.5608V22.5577Z" fill="white"/>
<path d="M194.027 52.4761V43.0664H188.59V52.4761H178.005V24.6026H188.59V34.0154H194.027V24.6026H204.616V52.4761H194.027Z" fill="black"/>
<path d="M202.527 26.6475V50.4312H196.116V41.0184H186.501V50.4312H180.09V26.6475H186.501V36.0603H196.116V26.6475H202.527ZM206.705 22.5577H191.939V31.9705H190.679V22.5577H175.913V54.521H190.679V45.1082H191.939V54.521H206.705V22.5577Z" fill="white"/>
<path d="M206.952 52.4761V49.3395H203.748V24.6026H214.333V43.4282H219.771V24.6026H230.359V49.3395H227.152V52.4761H206.952Z" fill="black"/>
<path d="M228.27 26.6475V47.2946H225.067V50.4312H209.044V47.2946H205.84V26.6475H212.251V45.4731H221.866V26.6475H228.277M232.448 22.5577H217.682V41.3833H216.422V22.5577H201.656V51.3844H204.86V54.521H229.238V51.3844H232.441V22.5577H232.448Z" fill="white"/>
<path d="M245.514 52.4761V46.203H242.307V43.0664H240.077V52.4761H229.488V24.6026H240.077V27.7423H243.281V30.8788H245.514V24.6026H256.099V52.4761H245.514Z" fill="black"/>
<path d="M254.01 26.6475V50.4312H247.6V44.1549H244.396V41.0184H241.192V37.8818H237.988V50.4312H231.577V26.6475H237.988V29.784H241.192V32.9206H244.396V36.0571H247.6V26.6443H254.01M258.188 22.5577H243.422V25.6942H242.162V22.5577H227.396V54.521H242.162V48.2447H243.422V54.521H258.188V22.5577Z" fill="white"/>
<path d="M261.643 52.4761V33.6536H255.232V24.6026H278.639V33.6536H272.228V52.4761H261.643Z" fill="black"/>
<path d="M276.55 26.6475V31.6056H270.139V50.4312H263.728V31.6056H257.317V26.6475H276.547M280.728 22.5577H253.143V35.6953H259.554V54.521H274.32V35.6953H280.731V22.5577H280.728Z" fill="white"/>
<path d="M277.771 52.4761V43.4282H284.179V33.6536H277.771V24.6026H301.175V33.6536H294.767V43.4282H301.175V52.4761H277.771Z" fill="black"/>
<path d="M299.086 26.6475V31.6056H292.675V45.4699H299.086V50.428H279.857V45.4699H286.268V31.6056H279.857V26.6475H299.086ZM303.264 22.5577H275.679V35.6953H282.09V41.3802H275.679V54.5178H303.264V41.3802H296.853V35.6953H303.264V22.5577Z" fill="white"/>
<path d="M316.33 52.4761V46.203H313.126V43.0664H310.896V52.4761H300.307V24.6026H310.896V27.7423H314.1V30.8788H316.33V24.6026H326.919V52.4761H316.33Z" fill="black"/>
<path d="M324.83 26.6475V50.4312H318.419V44.1549H315.215V41.0184H312.011V37.8818H308.807V50.4312H302.396V26.6475H308.807V29.784H312.011V32.9206H315.215V36.0571H318.419V26.6443H324.83M329.007 22.5577H314.241V25.6942H312.981V22.5577H298.215V54.521H312.981V48.2447H314.241V54.521H329.007V22.5577Z" fill="white"/>
<path d="M332.459 52.4761V49.3395H329.255V46.203H326.051V30.8788H329.255V27.7423H332.459V24.6057H352.659V33.6536H339.84V34.0185H352.659V52.4792H332.459V52.4761ZM342.073 43.4282V43.0633H339.84V43.4282H342.073ZM338.87 40.2916V36.7902H336.636V40.2916H338.87Z" fill="black"/>
<path d="M350.573 26.6475V31.6056H337.754V34.7421H334.551V42.3334H337.754V45.4699H344.165V41.0152H340.962V36.0571H350.576V50.428H334.554V47.2915H331.35V44.1549H328.146V32.9206H331.35V29.784H334.554V26.6475H350.576M354.751 22.5577H330.373V25.6942H327.169V28.8308H323.965V48.2447H327.169V51.3813H330.373V54.5178H354.751V22.5577Z" fill="white"/>
<path d="M163.631 53.6967L162.827 52.9102V40.32L159.726 43.3527H158.592L157.072 41.8678V40.7572L160.173 37.7214H152.769L151.966 36.9349V34.8333L152.769 34.0469H159.922L157.072 31.2564V30.1427L158.592 28.6578H159.726L162.827 31.6905V24.0898L163.631 23.3033H165.777L166.581 24.0898V31.4483L169.431 28.6578H170.565L172.085 30.1427V31.2564L169.235 34.0469H176.636L177.439 34.8333V36.9349L176.636 37.7214H168.984L172.085 40.7572V41.8678L170.565 43.3527H169.431L166.581 40.5622V52.9102L165.777 53.6967H163.631Z" fill="black"/>
<path d="M165.777 24.0898V33.3484L170 29.2146L171.517 30.6995L167.294 34.8333H176.636V36.9349H167.047L171.517 41.3109L170 42.7958L165.777 38.662V52.9071H163.631V38.4166L159.161 42.7927L157.644 41.3078L162.114 36.9317H152.772V34.8302H161.867L157.644 30.6964L159.161 29.2115L163.631 33.5875V24.0898H165.777ZM165.777 22.5168H163.631L162.024 24.0898V29.7935L160.295 28.1009H158.023L156.506 29.5858V31.8101L157.985 33.2572H152.769L151.162 34.8302V36.9317L152.769 38.5047H158.232L156.503 40.1973V42.4215L158.02 43.9064H160.292L162.021 42.2138V52.9071L163.628 54.4801H165.774L167.381 52.9071V42.4592L168.859 43.9064H171.131L172.648 42.4215V40.1973L170.919 38.5047H176.629L178.236 36.9317V34.8302L176.629 33.2572H171.166L172.645 31.8101V29.5858L171.128 28.1009H168.856L167.378 29.5481V24.0898L165.771 22.5168H165.777Z" fill="white"/>
<path d="M31.7132 51.5323V48.3957H28.5061V45.2592H25.3022V33.6442H28.5061V30.5076H31.7132V27.3679H46.7813V30.5076H49.9852V35.8464H41.3248V32.7098H37.1665V35.8464H33.9626V43.057H37.1665V46.1935H41.3248V43.057H49.9852V48.3957H46.7813V51.5323H31.7132Z" fill="black"/>
<path d="M45.6566 28.4691V31.6057H48.8605V34.7422H42.4495V31.6057H36.0386V34.7422H32.8347V44.155H36.0386V47.2916H42.4495V44.155H48.8605V47.2916H45.6566V50.4281H32.838V47.2916H29.6341V44.155H26.4302V34.7422H29.6341V31.6057H32.838V28.4691H45.6566ZM47.9061 26.2669H30.5885V29.4035H27.3846V32.54H24.1808V46.3572H27.3846V49.4938H30.5885V52.6303H47.9061V49.4938H51.1099V41.9528H40.2001V45.0894H38.2881V41.9528H35.0842V36.9444H38.2881V33.8079H40.2001V36.9444H51.1099V29.4035H47.9061V26.2669Z" fill="black"/>
<path d="M54.3042 51.5323V48.3957H51.1003V30.5076H54.3042V27.3711H72.5762V30.5076H75.78V48.3957H72.5762V51.5323H54.3042ZM67.1229 46.1935V32.7098H59.7575V46.1935H67.1229Z" fill="black"/>
<path d="M71.4514 28.469V31.6056H74.6553V47.2915H71.4514V50.428H55.4289V47.2915H52.225V31.6056H55.4289V28.469H71.4514ZM58.6328 47.2946H68.2476V31.6087H58.6328V47.2946ZM73.7009 26.2668H53.1794V29.4034H49.9756V49.4937H53.1794V52.6302H73.7009V49.4937H76.9047V29.4065H73.7009V26.27V26.2668ZM60.8822 33.8109H65.9981V45.0924H60.8822V33.8109Z" fill="black"/>
<path d="M76.8951 51.5323V27.3679H85.5555V46.1935H98.3742V51.5323H76.8951Z" fill="black"/>
<path d="M84.4308 28.469V47.2946H97.2494V50.4312H78.0198V28.469H84.4308ZM86.6802 26.2668H75.7704V52.6334H99.4989V45.0924H86.6802V26.2668Z" fill="black"/>
<path d="M102.693 51.5323V48.3957H99.4893V30.5076H102.693V27.3711H120.965V30.5076H124.169V48.3957H120.965V51.5323H102.693ZM115.512 46.1935V32.7098H108.146V46.1935H115.512Z" fill="black"/>
<path d="M119.84 28.469V31.6056H123.044V47.2915H119.84V50.428H103.818V47.2915H100.614V31.6056H103.818V28.469H119.84ZM107.022 47.2946H116.636V31.6087H107.022V47.2946ZM122.09 26.2668H101.568V29.4034H98.3645V49.4937H101.568V52.6302H122.09V49.4937H125.294V29.4065H122.09V26.27V26.2668ZM109.271 33.8109H114.387V45.0924H109.271V33.8109Z" fill="black"/>
<path d="M138.103 51.5323V48.3957H134.899V45.2592H133.944V51.5354H125.284V27.3679H146.763V30.5045H149.967V42.1195H143.556V43.0538H146.76V46.1904H149.964V51.5291H138.1L138.103 51.5323ZM138.103 39.9204V36.7839H141.307V32.7098H133.941V39.9204H138.103Z" fill="black"/>
<path d="M145.638 28.469V31.6056H148.842V41.0184H142.431V44.1549H145.635V47.2915H148.839V50.428H139.224V47.2915H136.02V44.1549H132.816V50.4312H126.406V28.469H145.635M132.82 41.0215H139.231V37.885H142.434V31.6087H132.82V41.0215ZM147.888 26.2668H124.159V52.6334H135.069V49.4968H136.981V52.6334H151.095V45.0924H147.891V43.2206H151.095V29.4065H147.891V26.27L147.888 26.2668ZM135.069 33.8109H140.185V35.6828H136.981V38.8193H135.069V33.8109Z" fill="black"/>
<path d="M194.991 51.5323V42.1226H187.626V51.5323H178.969V27.3679H187.626V36.7807H194.991V27.3679H203.652V51.5323H194.991Z" fill="black"/>
<path d="M202.527 28.469V50.4312H196.116V41.0184H186.501V50.4312H180.09V28.469H186.501V37.8818H196.116V28.469H202.527ZM204.776 26.2668H193.867V35.6796H188.751V26.2668H177.841V52.6334H188.751V43.2206H193.867V52.6334H204.776V26.2668Z" fill="black"/>
<path d="M207.916 51.5323V48.3957H204.712V27.3679H213.369V46.1935H220.735V27.3679H229.395V48.3957H226.188V51.5323H207.916Z" fill="black"/>
<path d="M228.27 28.469V47.2946H225.067V50.4312H209.044V47.2946H205.84V28.469H212.251V47.2946H221.866V28.469H228.277M230.52 26.2668H219.61V45.0924H214.494V26.2668H203.584V49.4968H206.788V52.6334H227.31V49.4968H230.513V26.2668H230.52Z" fill="black"/>
<path d="M246.478 51.5323V45.2592H243.271V42.1226H240.067V38.9829H239.113V51.5323H230.452V27.3679H239.113V30.5076H242.317V33.6442H245.52V36.7807H246.478V27.3679H255.135V51.5323H246.478Z" fill="black"/>
<path d="M254.01 28.469V50.4312H247.6V44.1549H244.396V41.0184H241.192V37.8818H237.988V50.4312H231.577V28.469H237.988V31.6056H241.192V34.7421H244.396V37.8787H247.6V28.4659H254.01M256.26 26.2668H245.35V32.5431H243.438V29.4065H240.234V26.27H229.324V52.6365H240.234V43.2237H242.146V46.3603H245.35V52.6365H256.26V26.2668Z" fill="black"/>
<path d="M262.607 51.5323V32.7098H256.196V27.3679H277.675V32.7098H271.264V51.5323H262.607Z" fill="black"/>
<path d="M276.55 28.469V31.6056H270.139V50.4312H263.728V31.6056H257.317V28.469H276.547M278.799 26.2668H255.071V33.8078H261.482V52.6334H272.392V33.8078H278.803V26.2668H278.799Z" fill="black"/>
<path d="M278.735 51.5323V46.1935H285.143V32.7098H278.735V27.3679H300.211V32.7098H293.803V46.1935H300.211V51.5323H278.735Z" fill="black"/>
<path d="M299.086 28.469V31.6056H292.675V47.2915H299.086V50.428H279.857V47.2915H286.268V31.6056H279.857V28.469H299.086ZM301.336 26.2668H277.607V33.8078H284.018V45.0893H277.607V52.6302H301.336V45.0893H294.925V33.8078H301.336V26.2668Z" fill="black"/>
<path d="M317.294 51.5323V45.2592H314.09V42.1226H310.886V38.9829H309.932V51.5323H301.271V27.3679H309.932V30.5076H313.136V33.6442H316.34V36.7807H317.294V27.3679H325.954V51.5323H317.294Z" fill="black"/>
<path d="M324.83 28.469V50.4312H318.419V44.1549H315.215V41.0184H312.011V37.8818H308.807V50.4312H302.396V28.469H308.807V31.6056H312.011V34.7421H315.215V37.8787H318.419V28.4659H324.83M327.079 26.2668H316.169V32.5431H314.257V29.4065H311.053V26.27H300.144V52.6365H311.053V43.2237H312.965V46.3603H316.169V52.6365H327.079V26.2668Z" fill="black"/>
<path d="M333.423 51.5323V48.3957H330.219V45.2592H327.015V33.6442H330.219V30.5076H333.423V27.3679H351.698V32.7098H338.879V35.8464H335.672V43.057H338.879V46.1935H343.037V42.1226H339.834V36.7807H351.698V51.5323H333.423Z" fill="black"/>
<path d="M350.573 28.469V31.6056H337.754V34.7421H334.55V44.1549H337.754V47.2915H344.165V41.0152H340.961V37.8787H350.576V50.428H334.554V47.2915H331.35V44.1549H328.146V34.7421H331.35V31.6056H334.554V28.469H350.576M352.822 26.2668H332.301V29.4034H329.097V32.5399H325.893V46.3571H329.097V49.4937H332.301V52.6302H352.822V35.6765H340.004V33.8046H352.822V26.2637V26.2668ZM336.797 36.9475H338.709V41.9559H336.797V36.9475ZM340.004 43.2237H341.916V45.0956H340.004V43.2237Z" fill="black"/>
<path d="M31.7132 49.7107V46.5742H28.5061V43.4376H25.3022V31.8226H28.5061V28.6861H31.7132V25.5464H46.7813V28.6861H49.9852V34.0248H41.3248V30.8883H37.1665V34.0248H33.9626V41.2354H37.1665V44.372H41.3248V41.2354H49.9852V46.5742H46.7813V49.7107H31.7132Z" fill="white"/>
<path d="M45.6566 26.6475V29.784H48.8605V32.9206H42.4495V29.784H36.0386V32.9206H32.8347V42.3334H36.0386V45.4699H42.4495V42.3334H48.8605V45.4699H45.6566V48.6065H32.838V45.4699H29.6341V42.3334H26.4302V32.9206H29.6341V29.784H32.838V26.6475H45.6566ZM47.9061 24.4453H30.5885V27.5818H27.3846V30.7184H24.1808V44.5356H27.3846V47.6721H30.5885V50.8087H47.9061V47.6721H51.1099V40.1312H40.2001V43.2677H38.2881V40.1312H35.0842V35.1228H38.2881V31.9862H40.2001V35.1228H51.1099V27.5818H47.9061V24.4453Z" fill="black"/>
<path d="M54.3042 49.7107V46.5742H51.1003V28.6861H54.3042V25.5495H72.5762V28.6861H75.78V46.5742H72.5762V49.7107H54.3042ZM67.1229 44.372V30.8883H59.7575V44.372H67.1229Z" fill="white"/>
<path d="M71.4514 26.6475V29.784H74.6553V45.4699H71.4514V48.6065H55.4289V45.4699H52.225V29.7872H55.4289V26.6506H71.4514M58.6328 45.4731H68.2476V29.7872H58.6328V45.4731ZM73.7009 24.4453H53.1794V27.5818H49.9756V47.6721H53.1794V50.8087H73.7009V47.6721H76.9047V27.585H73.7009V24.4484V24.4453ZM60.8822 31.9894H65.9981V43.2709H60.8822V31.9894Z" fill="black"/>
<path d="M76.895 49.7107V25.5464H85.5554V44.372H98.3741V49.7107H76.895Z" fill="white"/>
<path d="M84.4307 26.6475V45.4731H97.2493V48.6096H78.0197V26.6475H84.4307ZM86.6801 24.4453H75.7703V50.8118H99.4988V43.2709H86.6801V24.4453Z" fill="black"/>
<path d="M102.693 49.7107V46.5742H99.4893V28.6861H102.693V25.5495H120.965V28.6861H124.169V46.5742H120.965V49.7107H102.693ZM115.512 44.372V30.8883H108.146V44.372H115.512Z" fill="white"/>
<path d="M119.84 26.6475V29.784H123.044V45.4699H119.84V48.6065H103.818V45.4699H100.614V29.7872H103.818V26.6506H119.84M107.022 45.4731H116.636V29.7872H107.022V45.4731ZM122.09 24.4453H101.568V27.5818H98.3645V47.6721H101.568V50.8087H122.09V47.6721H125.294V27.585H122.09V24.4484V24.4453ZM109.271 31.9894H114.387V43.2709H109.271V31.9894Z" fill="black"/>
<path d="M138.103 49.7107V46.5742H134.899V43.4376H133.944V49.7139H125.284V25.5464H146.763V28.6829H149.967V40.2979H143.556V41.2323H146.76V44.3688H149.964V49.7076H138.1L138.103 49.7107ZM138.103 38.0989V34.9623H141.307V30.8883H133.941V38.0989H138.103Z" fill="white"/>
<path d="M145.638 26.6475V29.784H148.842V39.1968H142.431V42.3334H145.635V45.4699H148.839V48.6065H139.224V45.4699H136.02V42.3334H132.816V48.6096H126.406V26.6475H145.635M132.82 39.2H139.231V36.0634H142.434V29.7872H132.82V39.2ZM147.888 24.4453H124.159V50.8118H135.069V47.6753H136.981V50.8118H151.095V43.2709H147.891V41.399H151.095V27.585H147.891V24.4484L147.888 24.4453ZM135.069 31.9894H140.185V33.8612H136.981V36.9978H135.069V31.9894Z" fill="black"/>
<path d="M194.991 49.7107V40.3011H187.626V49.7107H178.969V25.5464H187.626V34.9592H194.991V25.5464H203.652V49.7107H194.991Z" fill="white"/>
<path d="M202.527 26.6475V48.6096H196.116V39.1968H186.501V48.6096H180.09V26.6475H186.501V36.0603H196.116V26.6475H202.527ZM204.776 24.4453H193.867V33.8581H188.751V24.4453H177.841V50.8118H188.751V41.399H193.867V50.8118H204.776V24.4453Z" fill="black"/>
<path d="M207.916 49.7107V46.5742H204.712V25.5464H213.369V44.372H220.735V25.5464H229.395V46.5742H226.188V49.7107H207.916Z" fill="white"/>
<path d="M228.27 26.6475V45.4731H225.067V48.6096H209.044V45.4731H205.84V26.6475H212.251V45.4731H221.866V26.6475H228.277M230.52 24.4453H219.61V43.2709H214.494V24.4453H203.584V47.6753H206.788V50.8118H227.31V47.6753H230.513V24.4453H230.52Z" fill="black"/>
<path d="M246.478 49.7107V43.4376H243.271V40.3011H240.067V37.1614H239.113V49.7107H230.452V25.5464H239.113V28.6861H242.317V31.8226H245.52V34.9592H246.478V25.5464H255.135V49.7107H246.478Z" fill="white"/>
<path d="M254.01 26.6475V48.6096H247.6V42.3334H244.396V39.1968H241.192V36.0603H237.988V48.6096H231.577V26.6475H237.988V29.784H241.192V32.9206H244.396V36.0571H247.6V26.6443H254.01M256.26 24.4453H245.35V30.7215H243.438V27.585H240.234V24.4484H229.324V50.815H240.234V41.4022H242.146V44.5387H245.35V50.815H256.26V24.4453Z" fill="black"/>
<path d="M262.607 49.7107V30.8883H256.196V25.5464H277.675V30.8883H271.264V49.7107H262.607Z" fill="white"/>
<path d="M276.55 26.6475V29.784H270.139V48.6096H263.728V29.7872H257.317V26.6506H276.547M278.799 24.4453H255.071V31.9862H261.482V50.8118H272.392V31.9862H278.803V24.4453H278.799Z" fill="black"/>
<path d="M278.735 49.7107V44.372H285.143V30.8883H278.735V25.5464H300.211V30.8883H293.803V44.372H300.211V49.7107H278.735Z" fill="white"/>
<path d="M299.086 26.6475V29.784H292.675V45.4699H299.086V48.6065H279.857V45.4699H286.268V29.7872H279.857V26.6506H299.086M301.336 24.4453H277.607V31.9862H284.018V43.2677H277.607V50.8087H301.336V43.2677H294.925V31.9862H301.336V24.4453Z" fill="black"/>
<path d="M317.294 49.7107V43.4376H314.09V40.3011H310.886V37.1614H309.932V49.7107H301.271V25.5464H309.932V28.6861H313.136V31.8226H316.34V34.9592H317.294V25.5464H325.954V49.7107H317.294Z" fill="white"/>
<path d="M324.83 26.6475V48.6096H318.419V42.3334H315.215V39.1968H312.011V36.0603H308.807V48.6096H302.396V26.6475H308.807V29.784H312.011V32.9206H315.215V36.0571H318.419V26.6443H324.83M327.079 24.4453H316.169V30.7215H314.257V27.585H311.053V24.4484H300.144V50.815H311.053V41.4022H312.965V44.5387H316.169V50.815H327.079V24.4453Z" fill="black"/>
<path d="M333.423 49.7107V46.5742H330.219V43.4376H327.015V31.8226H330.219V28.6861H333.423V25.5464H351.698V30.8883H338.879V34.0248H335.672V41.2354H338.879V44.372H343.037V40.3011H339.834V34.9592H351.698V49.7107H333.423Z" fill="white"/>
<path d="M350.573 26.6475V29.784H337.754V32.9206H334.55V42.3334H337.754V45.4699H344.165V39.1937H340.961V36.0571H350.576V48.6065H334.554V45.4699H331.35V42.3334H328.146V32.9206H331.35V29.784H334.554V26.6475H350.576M352.822 24.4453H332.301V27.5818H329.097V30.7184H325.893V44.5356H329.097V47.6721H332.301V50.8087H352.822V33.8549H340.004V31.9831H352.822V24.4453ZM336.797 35.1259H338.709V40.1343H336.797V35.1259ZM340.004 41.4022H341.916V43.274H340.004V41.4022Z" fill="black"/>
<path d="M165.777 24.0898H163.631V52.9102H165.777V24.0898Z" fill="black"/>
<path d="M171.517 30.6997L169.999 29.2137L157.643 41.3108L159.161 42.7968L171.517 30.6997Z" fill="black"/>
<path d="M170 42.7996L171.518 41.3136L159.161 29.2165L157.643 30.7025L170 42.7996Z" fill="black"/>
<path d="M152.769 34.8333V36.9349H176.636V34.8333H152.769Z" fill="black"/>
<defs>
<filter id="filter0_f_2110_877" x="0" y="0" width="377" height="77" filterUnits="userSpaceOnUse" color-interpolation-filters="sRGB">
<feFlood flood-opacity="0" result="BackgroundImageFix"/>
<feBlend mode="normal" in="SourceGraphic" in2="BackgroundImageFix" result="shape"/>
<feGaussianBlur stdDeviation="10" result="effect1_foregroundBlur_2110_877"/>
</filter>
<linearGradient id="paint0_linear_2110_877" x1="188.5" y1="20" x2="188.5" y2="57" gradientUnits="userSpaceOnUse">
<stop stop-color="#EF4C4C"/>
<stop offset="0.259615" stop-color="#FFD671"/>
<stop offset="0.5" stop-color="#92EAAB"/>
<stop offset="0.754808" stop-color="#4B79EA"/>
<stop offset="1" stop-color="#813FEA"/>
</linearGradient>
<linearGradient id="paint1_linear_2110_877" x1="188.498" y1="20" x2="188.498" y2="56.9969" gradientUnits="userSpaceOnUse">
<stop stop-color="#EF4C4C"/>
<stop offset="0.259615" stop-color="#FFD671"/>
<stop offset="0.5" stop-color="#8EEE83"/>
<stop offset="0.754808" stop-color="#4B79EA"/>
<stop offset="1" stop-color="#813FEA"/>
</linearGradient>
</defs>
</svg>
