<svg width="381" height="80" viewBox="0 0 381 80" fill="none" xmlns="http://www.w3.org/2000/svg">
<g filter="url(#filter0_f_2144_1042)">
<rect x="22" y="20" width="337" height="37" fill="url(#paint0_linear_2144_1042)" fill-opacity="0.45"/>
</g>
<path d="M352.573 20.3555H175.666V27.0187L174.953 26.3203H171.955V24.0898L167.777 20H165.631L161.453 24.0898V26.3203H158.208L157.272 27.2358V23.4921H154.069V20.3555H99.394V23.4921H96.1901V39.178H92.8609V20.3555H28.4109V23.4921H25.2071V26.6286H22V50.4469H25.2039V53.5835H28.4077V56.72H157.269V44.7715L158.204 45.687H161.45V52.9071L165.628 56.9969H167.774L171.952 52.9071V45.687H174.95L175.663 44.9886V56.7232H358.997V20.3555H352.57H352.573ZM281.841 39.1811H278.566V37.9007H281.841V39.1811Z" fill="white"/>
<path d="M352.573 20.3555H175.666V27.0187L174.953 26.3203H171.955V24.0898L167.777 20H165.631L161.453 24.0898V26.3203H158.208L157.272 27.2358V23.4921H154.069V20.3555H99.394V23.4921H96.1901V39.178H92.8609V20.3555H28.4109V23.4921H25.2071V26.6286H22V50.4469H25.2039V53.5835H28.4077V56.72H157.269V44.7715L158.204 45.687H161.45V52.9071L165.628 56.9969H167.774L171.952 52.9071V45.687H174.95L175.663 44.9886V56.7232H358.997V20.3555H352.57H352.573ZM281.841 39.1811H278.566V37.9007H281.841V39.1811Z" fill="url(#paint1_linear_2144_1042)"/>
<path d="M32.7493 52.4761V49.3395H29.5422V46.203H26.3384V30.8789H29.5422V27.7423H32.7493V24.6026H49.7455V27.7423H52.9494V36.7902H42.3609V33.6536H40.1307V36.7902H36.9269V40.2917H40.1307V43.4282H42.3609V40.2917H52.9494V49.3395H49.7455V52.4761H32.7493Z" fill="black"/>
<path d="M47.6567 26.6475V29.784H50.8605V34.7421H44.4496V31.6055H38.0387V34.7421H34.8348V42.3334H38.0387V45.4699H44.4496V42.3334H50.8605V47.2915H47.6567V50.428H34.838V47.2915H31.6341V44.1549H28.4303V32.9206H31.6341V29.784H34.838V26.6475H47.6567ZM51.8342 22.5577H30.6604V25.6942H27.4566V28.8308H24.2495V48.2447H27.4534V51.3812H30.6572V54.5178H51.831V51.3812H55.0349V25.6974H51.831V22.5608L51.8342 22.5577Z" fill="white"/>
<path d="M55.3401 52.476V49.3395H52.1362V27.7423H55.3401V24.6057H75.5402V27.7423H78.744V49.3395H75.5402V52.476H55.3401ZM68.1588 43.4282V33.6536H62.7215V43.4282H68.1588Z" fill="black"/>
<path d="M73.4513 26.6475V29.784H76.6552V47.2915H73.4513V50.428H57.4288V47.2915H54.2249V29.7872H57.4288V26.6506H73.4513M60.6326 45.4731H70.2474V31.6087H60.6326V45.4731ZM77.6289 22.5577H53.2512V25.6942H50.0474V51.3812H53.2512V54.5178H77.6289V51.3812H80.8327V25.6974H77.6289V22.5608V22.5577ZM64.8102 35.6985H66.0699V41.3833H64.8102V35.6985Z" fill="white"/>
<path d="M77.9312 52.4761V24.6026H88.5196V43.4282H101.338V52.4761H77.9312Z" fill="black"/>
<path d="M86.4308 26.6475V45.4731H99.2494V50.4312H80.0198V26.6475H86.4308ZM90.6083 22.5577H75.8423V54.5209H103.427V41.3833H90.6083V22.5577Z" fill="white"/>
<path d="M103.729 52.476V49.3395H100.525V27.7423H103.729V24.6057H123.929V27.7423H127.133V49.3395H123.929V52.476H103.729ZM116.548 43.4282V33.6536H111.111V43.4282H116.548Z" fill="black"/>
<path d="M121.84 26.6475V29.784H125.044V47.2915H121.84V50.428H105.818V47.2915H102.614V29.7872H105.818V26.6506H121.84M109.022 45.4731H118.637V31.6087H109.022V45.4731ZM126.018 22.5577H101.64V25.6942H98.4365V51.3812H101.64V54.5178H126.018V51.3812H129.222V25.6974H126.018V22.5608V22.5577ZM113.199 35.6985H114.459V41.3833H113.199V35.6985Z" fill="white"/>
<path d="M139.139 52.4761V49.3395H136.905V52.4761H126.317V24.6026H149.724V27.7392H152.928V43.0633H149.724V43.4282H152.928V52.4761H139.136H139.139ZM139.139 37.1551V34.0186H142.343V33.6536H136.905V37.1551H139.139Z" fill="black"/>
<path d="M147.639 26.6475V29.784H150.842V41.0184H144.432V42.3334H147.635V45.4699H150.839V50.428H141.224V47.2915H138.021V44.1549H134.817V50.4312H128.406V26.6475H147.635M134.82 39.2H141.231V36.0634H144.435V31.6087H134.82V39.2ZM151.816 22.5577H124.231V54.5209H155.02V25.6974H151.816V22.5608V22.5577Z" fill="white"/>
<path d="M196.027 52.4761V43.0664H190.59V52.4761H180.004V24.6026H190.59V34.0154H196.027V24.6026H206.615V52.4761H196.027Z" fill="black"/>
<path d="M204.527 26.6475V50.4312H198.116V41.0184H188.501V50.4312H182.09V26.6475H188.501V36.0603H198.116V26.6475H204.527ZM208.704 22.5577H193.938V31.9705H192.679V22.5577H177.913V54.5209H192.679V45.1081H193.938V54.5209H208.704V22.5577Z" fill="white"/>
<path d="M208.952 52.4761V49.3395H205.748V24.6026H216.333V43.4282H221.771V24.6026H232.359V49.3395H229.152V52.4761H208.952Z" fill="black"/>
<path d="M230.27 26.6475V47.2946H227.067V50.4312H211.044V47.2946H207.84V26.6475H214.251V45.4731H223.866V26.6475H230.277M234.448 22.5577H219.682V41.3833H218.422V22.5577H203.656V51.3844H206.86V54.5209H231.238V51.3844H234.442V22.5577H234.448Z" fill="white"/>
<path d="M247.514 52.4761V46.203H244.307V43.0664H242.077V52.4761H231.488V24.6026H242.077V27.7423H245.281V30.8789H247.514V24.6026H258.099V52.4761H247.514Z" fill="black"/>
<path d="M256.011 26.6475V50.4312H249.6V44.1549H246.396V41.0184H243.192V37.8818H239.988V50.4312H233.577V26.6475H239.988V29.784H243.192V32.9206H246.396V36.0571H249.6V26.6443H256.011M260.188 22.5577H245.422V25.6942H244.163V22.5577H229.396V54.5209H244.163V48.2447H245.422V54.5209H260.188V22.5577Z" fill="white"/>
<path d="M263.643 52.4761V33.6536H257.232V24.6026H280.639V33.6536H274.228V52.4761H263.643Z" fill="black"/>
<path d="M278.55 26.6475V31.6055H272.139V50.4312H265.728V31.6055H259.317V26.6475H278.547M282.728 22.5577H255.143V35.6953H261.554V54.5209H276.32V35.6953H282.731V22.5577H282.728Z" fill="white"/>
<path d="M279.771 52.4761V43.4282H286.179V33.6536H279.771V24.6026H303.175V33.6536H296.767V43.4282H303.175V52.4761H279.771Z" fill="black"/>
<path d="M301.086 26.6475V31.6055H294.675V45.4699H301.086V50.428H281.857V45.4699H288.268V31.6055H281.857V26.6475H301.086ZM305.264 22.5577H277.679V35.6953H284.09V41.3801H277.679V54.5178H305.264V41.3801H298.853V35.6953H305.264V22.5577Z" fill="white"/>
<path d="M318.33 52.4761V46.203H315.126V43.0664H312.896V52.4761H302.307V24.6026H312.896V27.7423H316.099V30.8789H318.33V24.6026H328.918V52.4761H318.33Z" fill="black"/>
<path d="M326.83 26.6475V50.4312H320.419V44.1549H317.215V41.0184H314.011V37.8818H310.807V50.4312H304.396V26.6475H310.807V29.784H314.011V32.9206H317.215V36.0571H320.419V26.6443H326.83M331.007 22.5577H316.241V25.6942H314.981V22.5577H300.215V54.5209H314.981V48.2447H316.241V54.5209H331.007V22.5577Z" fill="white"/>
<path d="M334.459 52.476V49.3395H331.255V46.2029H328.051V30.8788H331.255V27.7423H334.459V24.6057H354.659V33.6536H341.84V34.0185H354.659V52.4792H334.459V52.476ZM344.073 43.4282V43.0632H341.84V43.4282H344.073ZM340.869 40.2916V36.7901H338.636V40.2916H340.869Z" fill="black"/>
<path d="M352.573 26.6475V31.6055H339.754V34.7421H336.551V42.3334H339.754V45.4699H346.165V41.0152H342.962V36.0571H352.576V50.428H336.554V47.2915H333.35V44.1549H330.146V32.9206H333.35V29.784H336.554V26.6475H352.576M356.751 22.5577H332.373V25.6942H329.169V28.8308H325.965V48.2447H329.169V51.3812H332.373V54.5178H356.751V22.5577Z" fill="white"/>
<path d="M165.631 53.6967L164.827 52.9102V40.3199L161.726 43.3527H160.592L159.072 41.8678V40.7572L162.173 37.7214H154.769L153.966 36.9349V34.8333L154.769 34.0468H161.922L159.072 31.2563V30.1427L160.592 28.6578H161.726L164.827 31.6905V24.0898L165.631 23.3033H167.777L168.581 24.0898V31.4483L171.431 28.6578H172.566L174.086 30.1427V31.2563L171.235 34.0468H178.636L179.439 34.8333V36.9349L178.636 37.7214H170.985L174.086 40.7572V41.8678L172.566 43.3527H171.431L168.581 40.5622V52.9102L167.777 53.6967H165.631Z" fill="black"/>
<path d="M167.778 24.0898V33.3484L172 29.2146L173.517 30.6995L169.294 34.8333H178.636V36.9349H169.047L173.517 41.3109L172 42.7958L167.778 38.662V52.9071H165.631V38.4166L161.161 42.7927L159.644 41.3078L164.114 36.9317H154.773V34.8302H163.867L159.644 30.6964L161.161 29.2115L165.631 33.5875V24.0898H167.778ZM167.778 22.5168H165.631L164.024 24.0898V29.7935L162.295 28.1009H160.023L158.507 29.5858V31.81L159.985 33.2572H154.769L153.163 34.8302V36.9317L154.769 38.5047H160.232L158.503 40.1973V42.4215L160.02 43.9064H162.292L164.021 42.2138V52.9071L165.628 54.4801H167.774L169.381 52.9071V42.4592L170.859 43.9064H173.131L174.648 42.4215V40.1973L172.919 38.5047H178.63L180.236 36.9317V34.8302L178.63 33.2572H173.167L174.645 31.81V29.5858L173.128 28.1009H170.856L169.378 29.5481V24.0898L167.771 22.5168H167.778Z" fill="white"/>
<path d="M33.7132 51.5323V48.3957H30.5061V45.2592H27.3022V33.6442H30.5061V30.5076H33.7132V27.3679H48.7813V30.5076H51.9852V35.8464H43.3248V32.7098H39.1665V35.8464H35.9626V43.057H39.1665V46.1935H43.3248V43.057H51.9852V48.3957H48.7813V51.5323H33.7132Z" fill="black"/>
<path d="M47.6565 28.4691V31.6057H50.8604V34.7422H44.4494V31.6057H38.0385V34.7422H34.8346V44.155H38.0385V47.2916H44.4494V44.155H50.8604V47.2916H47.6565V50.4281H34.8378V47.2916H31.634V44.155H28.4301V34.7422H31.634V31.6057H34.8378V28.4691H47.6565ZM49.906 26.2669H32.5884V29.4035H29.3845V32.54H26.1807V46.3572H29.3845V49.4938H32.5884V52.6303H49.906V49.4938H53.1098V41.9528H42.2V45.0894H40.2879V41.9528H37.0841V36.9444H40.2879V33.8078H42.2V36.9444H53.1098V29.4035H49.906V26.2669Z" fill="black"/>
<path d="M56.304 51.5323V48.3958H53.1001V30.5076H56.304V27.3711H74.5759V30.5076H77.7798V48.3958H74.5759V51.5323H56.304ZM69.1226 46.1936V32.7098H61.7573V46.1936H69.1226Z" fill="black"/>
<path d="M73.4514 28.469V31.6056H76.6553V47.2915H73.4514V50.4281H57.4289V47.2915H54.225V31.6056H57.4289V28.469H73.4514ZM60.6328 47.2947H70.2476V31.6087H60.6328V47.2947ZM75.7009 26.2668H55.1794V29.4034H51.9756V49.4937H55.1794V52.6303H75.7009V49.4937H78.9047V29.4065H75.7009V26.27V26.2668ZM62.8822 33.8109H67.9981V45.0925H62.8822V33.8109Z" fill="black"/>
<path d="M78.8945 51.5323V27.3679H87.5549V46.1935H100.374V51.5323H78.8945Z" fill="black"/>
<path d="M86.4304 28.469V47.2946H99.2491V50.4312H80.0195V28.469H86.4304ZM88.6799 26.2668H77.77V52.6334H101.499V45.0925H88.6799V26.2668Z" fill="black"/>
<path d="M104.693 51.5323V48.3958H101.489V30.5076H104.693V27.3711H122.965V30.5076H126.168V48.3958H122.965V51.5323H104.693ZM117.511 46.1936V32.7098H110.146V46.1936H117.511Z" fill="black"/>
<path d="M121.84 28.469V31.6056H125.044V47.2915H121.84V50.4281H105.818V47.2915H102.614V31.6056H105.818V28.469H121.84ZM109.021 47.2947H118.636V31.6087H109.021V47.2947ZM124.09 26.2668H103.568V29.4034H100.364V49.4937H103.568V52.6303H124.09V49.4937H127.293V29.4065H124.09V26.27V26.2668ZM111.271 33.8109H116.387V45.0925H111.271V33.8109Z" fill="black"/>
<path d="M140.102 51.5323V48.3957H136.898V45.2592H135.944V51.5354H127.284V27.3679H148.763V30.5045H151.967V42.1195H145.556V43.0538H148.76V46.1904H151.963V51.5291H140.099L140.102 51.5323ZM140.102 39.9204V36.7839H143.306V32.7098H135.941V39.9204H140.102Z" fill="black"/>
<path d="M147.638 28.469V31.6056H150.842V41.0184H144.431V44.1549H147.635V47.2915H150.839V50.4281H141.224V47.2915H138.02V44.1549H134.816V50.4312H128.405V28.469H147.635M134.82 41.0215H141.231V37.885H144.434V31.6087H134.82V41.0215ZM149.888 26.2668H126.159V52.6334H137.069V49.4968H138.981V52.6334H153.095V45.0925H149.891V43.2206H153.095V29.4065H149.891V26.27L149.888 26.2668ZM137.069 33.8109H142.185V35.6828H138.981V38.8193H137.069V33.8109Z" fill="black"/>
<path d="M196.991 51.5323V42.1226H189.626V51.5323H180.969V27.3679H189.626V36.7807H196.991V27.3679H205.652V51.5323H196.991Z" fill="black"/>
<path d="M204.527 28.469V50.4312H198.116V41.0184H188.501V50.4312H182.09V28.469H188.501V37.8818H198.116V28.469H204.527ZM206.776 26.2668H195.867V35.6796H190.751V26.2668H179.841V52.6334H190.751V43.2206H195.867V52.6334H206.776V26.2668Z" fill="black"/>
<path d="M209.916 51.5323V48.3957H206.712V27.3679H215.369V46.1935H222.734V27.3679H231.395V48.3957H228.188V51.5323H209.916Z" fill="black"/>
<path d="M230.27 28.469V47.2946H227.066V50.4312H211.044V47.2946H207.84V28.469H214.251V47.2946H223.866V28.469H230.277M232.52 26.2668H221.61V45.0925H216.494V26.2668H205.584V49.4968H208.788V52.6334H229.309V49.4968H232.513V26.2668H232.52Z" fill="black"/>
<path d="M248.478 51.5323V45.2592H245.271V42.1226H242.067V38.9829H241.113V51.5323H232.452V27.3679H241.113V30.5076H244.316V33.6442H247.52V36.7807H248.478V27.3679H257.135V51.5323H248.478Z" fill="black"/>
<path d="M256.01 28.469V50.4312H249.599V44.155H246.396V41.0184H243.192V37.8818H239.988V50.4312H233.577V28.469H239.988V31.6056H243.192V34.7421H246.396V37.8787H249.599V28.4659H256.01M258.26 26.2668H247.35V32.5431H245.438V29.4065H242.234V26.27H231.324V52.6365H242.234V43.2237H244.146V46.3603H247.35V52.6365H258.26V26.2668Z" fill="black"/>
<path d="M264.606 51.5323V32.7098H258.195V27.3679H279.674V32.7098H273.263V51.5323H264.606Z" fill="black"/>
<path d="M278.55 28.469V31.6056H272.139V50.4312H265.728V31.6056H259.317V28.469H278.547M280.799 26.2668H257.071V33.8078H263.482V52.6334H274.392V33.8078H280.803V26.2668H280.799Z" fill="black"/>
<path d="M280.735 51.5323V46.1935H287.143V32.7098H280.735V27.3679H302.211V32.7098H295.803V46.1935H302.211V51.5323H280.735Z" fill="black"/>
<path d="M301.086 28.469V31.6056H294.675V47.2915H301.086V50.4281H281.856V47.2915H288.267V31.6056H281.856V28.469H301.086ZM303.335 26.2668H279.607V33.8078H286.018V45.0893H279.607V52.6303H303.335V45.0893H296.925V33.8078H303.335V26.2668Z" fill="black"/>
<path d="M319.294 51.5323V45.2592H316.09V42.1226H312.886V38.9829H311.932V51.5323H303.271V27.3679H311.932V30.5076H315.136V33.6442H318.34V36.7807H319.294V27.3679H327.954V51.5323H319.294Z" fill="black"/>
<path d="M326.83 28.469V50.4312H320.419V44.155H317.215V41.0184H314.011V37.8818H310.807V50.4312H304.396V28.469H310.807V31.6056H314.011V34.7421H317.215V37.8787H320.419V28.4659H326.83M329.079 26.2668H318.169V32.5431H316.257V29.4065H313.053V26.27H302.144V52.6365H313.053V43.2237H314.965V46.3603H318.169V52.6365H329.079V26.2668Z" fill="black"/>
<path d="M335.422 51.5323V48.3957H332.219V45.2592H329.015V33.6442H332.219V30.5076H335.422V27.3679H353.698V32.7098H340.879V35.8464H337.672V43.057H340.879V46.1935H345.037V42.1226H341.833V36.7807H353.698V51.5323H335.422Z" fill="black"/>
<path d="M352.573 28.469V31.6056H339.754V34.7421H336.55V44.1549H339.754V47.2915H346.165V41.0152H342.961V37.8787H352.576V50.428H336.553V47.2915H333.35V44.1549H330.146V34.7421H333.35V31.6056H336.553V28.469H352.576M354.822 26.2668H334.301V29.4034H331.097V32.5399H327.893V46.3571H331.097V49.4937H334.301V52.6302H354.822V35.6765H342.004V33.8046H354.822V26.2637V26.2668ZM338.796 36.9475H340.709V41.9559H338.796V36.9475ZM342.004 43.2237H343.916V45.0956H342.004V43.2237Z" fill="black"/>
<path d="M33.7132 49.7107V46.5741H30.5061V43.4376H27.3022V31.8226H30.5061V28.686H33.7132V25.5463H48.7813V28.686H51.9852V34.0248H43.3248V30.8882H39.1665V34.0248H35.9626V41.2354H39.1665V44.3719H43.3248V41.2354H51.9852V46.5741H48.7813V49.7107H33.7132Z" fill="white"/>
<path d="M47.6565 26.6474V29.784H50.8604V32.9206H44.4494V29.784H38.0385V32.9206H34.8346V42.3334H38.0385V45.4699H44.4494V42.3334H50.8604V45.4699H47.6565V48.6065H34.8378V45.4699H31.634V42.3334H28.4301V32.9206H31.634V29.784H34.8378V26.6474H47.6565ZM49.906 24.4453H32.5884V27.5818H29.3845V30.7184H26.1807V44.5355H29.3845V47.6721H32.5884V50.8087H49.906V47.6721H53.1098V40.1312H42.2V43.2677H40.2879V40.1312H37.0841V35.1227H40.2879V31.9862H42.2V35.1227H53.1098V27.5818H49.906V24.4453Z" fill="black"/>
<path d="M56.304 49.7107V46.5742H53.1001V28.6861H56.304V25.5495H74.5759V28.6861H77.7798V46.5742H74.5759V49.7107H56.304ZM69.1226 44.372V30.8882H61.7573V44.372H69.1226Z" fill="white"/>
<path d="M73.4514 26.6474V29.784H76.6553V45.4699H73.4514V48.6065H57.4289V45.4699H54.225V29.7871H57.4289V26.6506H73.4514M60.6328 45.4731H70.2476V29.7871H60.6328V45.4731ZM75.7009 24.4453H55.1794V27.5818H51.9756V47.6721H55.1794V50.8087H75.7009V47.6721H78.9047V27.585H75.7009V24.4484V24.4453ZM62.8822 31.9893H67.9981V43.2709H62.8822V31.9893Z" fill="black"/>
<path d="M78.895 49.7107V25.5463H87.5554V44.3719H100.374V49.7107H78.895Z" fill="white"/>
<path d="M86.4304 26.6474V45.4731H99.2491V48.6096H80.0195V26.6474H86.4304ZM88.6799 24.4453H77.77V50.8118H101.499V43.2709H88.6799V24.4453Z" fill="black"/>
<path d="M104.693 49.7107V46.5742H101.489V28.6861H104.693V25.5495H122.965V28.6861H126.168V46.5742H122.965V49.7107H104.693ZM117.511 44.372V30.8882H110.146V44.372H117.511Z" fill="white"/>
<path d="M121.84 26.6474V29.784H125.044V45.4699H121.84V48.6065H105.818V45.4699H102.614V29.7871H105.818V26.6506H121.84M109.021 45.4731H118.636V29.7871H109.021V45.4731ZM124.09 24.4453H103.568V27.5818H100.364V47.6721H103.568V50.8087H124.09V47.6721H127.293V27.585H124.09V24.4484V24.4453ZM111.271 31.9893H116.387V43.2709H111.271V31.9893Z" fill="black"/>
<path d="M140.102 49.7107V46.5741H136.898V43.4376H135.944V49.7138H127.284V25.5463H148.763V28.6829H151.967V40.2979H145.556V41.2322H148.76V44.3688H151.963V49.7075H140.099L140.102 49.7107ZM140.102 38.0988V34.9623H143.306V30.8882H135.941V38.0988H140.102Z" fill="white"/>
<path d="M147.638 26.6474V29.784H150.842V39.1968H144.431V42.3334H147.635V45.4699H150.839V48.6065H141.224V45.4699H138.02V42.3334H134.816V48.6096H128.405V26.6474H147.635M134.82 39.1999H141.231V36.0634H144.434V29.7871H134.82V39.1999ZM149.888 24.4453H126.159V50.8118H137.069V47.6752H138.981V50.8118H153.095V43.2709H149.891V41.399H153.095V27.585H149.891V24.4484L149.888 24.4453ZM137.069 31.9893H142.185V33.8612H138.981V36.9978H137.069V31.9893Z" fill="black"/>
<path d="M196.991 49.7107V40.301H189.626V49.7107H180.969V25.5463H189.626V34.9591H196.991V25.5463H205.652V49.7107H196.991Z" fill="white"/>
<path d="M204.527 26.6474V48.6096H198.116V39.1968H188.501V48.6096H182.09V26.6474H188.501V36.0602H198.116V26.6474H204.527ZM206.776 24.4453H195.867V33.8581H190.751V24.4453H179.841V50.8118H190.751V41.399H195.867V50.8118H206.776V24.4453Z" fill="black"/>
<path d="M209.916 49.7107V46.5741H206.712V25.5463H215.369V44.3719H222.734V25.5463H231.395V46.5741H228.188V49.7107H209.916Z" fill="white"/>
<path d="M230.27 26.6474V45.4731H227.066V48.6096H211.044V45.4731H207.84V26.6474H214.251V45.4731H223.866V26.6474H230.277M232.52 24.4453H221.61V43.2709H216.494V24.4453H205.584V47.6752H208.788V50.8118H229.309V47.6752H232.513V24.4453H232.52Z" fill="black"/>
<path d="M248.478 49.7107V43.4376H245.271V40.301H242.067V37.1613H241.113V49.7107H232.452V25.5463H241.113V28.686H244.316V31.8226H247.52V34.9591H248.478V25.5463H257.135V49.7107H248.478Z" fill="white"/>
<path d="M256.01 26.6474V48.6096H249.599V42.3334H246.396V39.1968H243.192V36.0603H239.988V48.6096H233.577V26.6474H239.988V29.784H243.192V32.9206H246.396V36.0571H249.599V26.6443H256.01M258.26 24.4453H247.35V30.7215H245.438V27.585H242.234V24.4484H231.324V50.815H242.234V41.4021H244.146V44.5387H247.35V50.815H258.26V24.4453Z" fill="black"/>
<path d="M264.606 49.7107V30.8882H258.195V25.5463H279.674V30.8882H273.263V49.7107H264.606Z" fill="white"/>
<path d="M278.55 26.6474V29.784H272.139V48.6096H265.728V29.7871H259.317V26.6506H278.547M280.799 24.4453H257.071V31.9862H263.482V50.8118H274.392V31.9862H280.803V24.4453H280.799Z" fill="black"/>
<path d="M280.735 49.7107V44.3719H287.143V30.8882H280.735V25.5463H302.211V30.8882H295.803V44.3719H302.211V49.7107H280.735Z" fill="white"/>
<path d="M301.086 26.6474V29.784H294.675V45.4699H301.086V48.6065H281.856V45.4699H288.267V29.7871H281.856V26.6506H301.086M303.335 24.4453H279.607V31.9862H286.018V43.2677H279.607V50.8087H303.335V43.2677H296.925V31.9862H303.335V24.4453Z" fill="black"/>
<path d="M319.294 49.7107V43.4376H316.09V40.301H312.886V37.1613H311.932V49.7107H303.271V25.5463H311.932V28.686H315.136V31.8226H318.34V34.9591H319.294V25.5463H327.954V49.7107H319.294Z" fill="white"/>
<path d="M326.83 26.6474V48.6096H320.419V42.3334H317.215V39.1968H314.011V36.0603H310.807V48.6096H304.396V26.6474H310.807V29.784H314.011V32.9206H317.215V36.0571H320.419V26.6443H326.83M329.079 24.4453H318.169V30.7215H316.257V27.585H313.053V24.4484H302.144V50.815H313.053V41.4021H314.965V44.5387H318.169V50.815H329.079V24.4453Z" fill="black"/>
<path d="M335.422 49.7107V46.5741H332.219V43.4376H329.015V31.8226H332.219V28.686H335.422V25.5463H353.698V30.8882H340.879V34.0248H337.672V41.2354H340.879V44.3719H345.037V40.301H341.833V34.9591H353.698V49.7107H335.422Z" fill="white"/>
<path d="M352.573 26.6474V29.784H339.754V32.9206H336.55V42.3334H339.754V45.4699H346.165V39.1937H342.961V36.0571H352.576V48.6065H336.553V45.4699H333.35V42.3334H330.146V32.9206H333.35V29.784H336.553V26.6474H352.576M354.822 24.4453H334.301V27.5818H331.097V30.7184H327.893V44.5355H331.097V47.6721H334.301V50.8087H354.822V33.8549H342.004V31.983H354.822V24.4453ZM338.796 35.1259H340.709V40.1343H338.796V35.1259ZM342.004 41.4021H343.916V43.274H342.004V41.4021Z" fill="black"/>
<path d="M167.777 24.0898H165.63V52.9102H167.777V24.0898Z" fill="black"/>
<path d="M173.517 30.6996L171.999 29.2136L159.642 41.3107L161.16 42.7967L173.517 30.6996Z" fill="black"/>
<path d="M172 42.7996L173.518 41.3136L161.161 29.2165L159.643 30.7025L172 42.7996Z" fill="black"/>
<path d="M154.769 34.8333V36.9349H178.636V34.8333H154.769Z" fill="black"/>
<defs>
<filter id="filter0_f_2144_1042" x="2" y="0" width="377" height="77" filterUnits="userSpaceOnUse" color-interpolation-filters="sRGB">
<feFlood flood-opacity="0" result="BackgroundImageFix"/>
<feBlend mode="normal" in="SourceGraphic" in2="BackgroundImageFix" result="shape"/>
<feGaussianBlur stdDeviation="10" result="effect1_foregroundBlur_2144_1042"/>
</filter>
<linearGradient id="paint0_linear_2144_1042" x1="190.5" y1="20" x2="190.5" y2="57" gradientUnits="userSpaceOnUse">
<stop stop-color="#EF4C4C"/>
<stop offset="0.259615" stop-color="#FFD671"/>
<stop offset="0.5" stop-color="#92EAAB"/>
<stop offset="0.754808" stop-color="#4B79EA"/>
<stop offset="1" stop-color="#813FEA"/>
</linearGradient>
<linearGradient id="paint1_linear_2144_1042" x1="190.498" y1="20" x2="190.498" y2="56.9969" gradientUnits="userSpaceOnUse">
<stop stop-color="#EF4C4C"/>
<stop offset="0.259615" stop-color="#FFD671"/>
<stop offset="0.5" stop-color="#8EEE83"/>
<stop offset="0.754808" stop-color="#4B79EA"/>
<stop offset="1" stop-color="#813FEA"/>
</linearGradient>
</defs>
</svg>
